<?xml version="1.0" encoding="UTF-8" standalone="no"?>
<!DOCTYPE svg PUBLIC "-//W3C//DTD SVG 1.1//EN"
 "http://www.w3.org/Graphics/SVG/1.1/DTD/svg11.dtd">
<!-- Generated by graphviz version 7.0.4 (20221203.1631)
 -->
<!-- Title: G Pages: 1 -->
<svg width="635pt" height="659pt"
 viewBox="0.00 0.00 634.66 658.56" xmlns="http://www.w3.org/2000/svg" xmlns:xlink="http://www.w3.org/1999/xlink">
<g id="graph0" class="graph" transform="scale(1 1) rotate(0) translate(4 654.56)">
<title>G</title><style>.edge>path:hover{stroke-width:8}</style>
<polygon fill="white" stroke="none" points="-4,4 -4,-654.56 630.66,-654.56 630.66,4 -4,4"/>
<!-- siibra -->
<g id="node1" class="node">
<title>siibra</title><style>.edge>path:hover{stroke-width:8}</style>
<ellipse fill="#a90404" stroke="black" cx="383.66" cy="-18" rx="27" ry="18"/>
<text text-anchor="middle" x="383.66" y="-15.5" font-family="Helvetica,sans-Serif" font-size="10.00" fill="#ffffff">siibra</text>
</g>
<!-- siibra_commons -->
<g id="node2" class="node">
<title>siibra_commons</title><style>.edge>path:hover{stroke-width:8}</style>
<ellipse fill="#f91010" stroke="black" cx="371.66" cy="-632.56" rx="50.75" ry="18"/>
<text text-anchor="middle" x="371.66" y="-630.06" font-family="Helvetica,sans-Serif" font-size="10.00" fill="#ffffff">siibra.commons</text>
</g>
<!-- siibra_commons&#45;&gt;siibra -->
<g id="edge1" class="edge">
<title>siibra_commons&#45;&gt;siibra</title><style>.edge>path:hover{stroke-width:8}</style>
<path fill="none" stroke="black" d="M231.66,-170.64C236.56,-137.03 222.69,-126.97 231.66,-94.21"/>
<path fill="none" stroke="black" d="M162.66,-556.35C116.49,-514.81 67.2,-538.18 45.66,-479.92"/>
<path fill="none" stroke="black" d="M7.66,-402.71C-25.06,-325 60.7,-309.31 121.66,-251.07"/>
<path fill="none" stroke="black" d="M121.66,-249.07C130.27,-240.24 131.12,-236.65 140.66,-228.85 177.48,-198.78 224.82,-219.68 231.66,-172.64"/>
<path fill="none" stroke="black" d="M45.66,-477.92C32.96,-443.53 18.06,-439.86 7.66,-404.71"/>
<path fill="none" stroke="black" d="M231.66,-92.21C244.52,-45.29 304.68,-28.44 345.35,-22.38"/>
<polygon fill="#f91010" stroke="black" points="345.8,-25.86 355.26,-21.09 344.89,-18.92 345.8,-25.86"/>
<path fill="none" stroke="black" d="M324.4,-625.67C278.17,-617.68 208.26,-599.35 162.66,-558.35"/>
</g>
<!-- siibra_configuration -->
<g id="node3" class="node">
<title>siibra_configuration</title><style>.edge>path:hover{stroke-width:8}</style>
<ellipse fill="#a51d1d" stroke="black" cx="123.66" cy="-478.92" rx="50.41" ry="21.43"/>
<text text-anchor="middle" x="123.66" y="-481.92" font-family="Helvetica,sans-Serif" font-size="10.00" fill="#ffffff">siibra.</text>
<text text-anchor="middle" x="123.66" y="-470.92" font-family="Helvetica,sans-Serif" font-size="10.00" fill="#ffffff">configuration</text>
</g>
<!-- siibra_commons&#45;&gt;siibra_configuration -->
<g id="edge2" class="edge">
<title>siibra_commons&#45;&gt;siibra_configuration</title><style>.edge>path:hover{stroke-width:8}</style>
<path fill="none" stroke="black" d="M162.66,-556.35C149.15,-544.31 139.67,-526.48 133.45,-511.07"/>
<polygon fill="#f91010" stroke="black" points="136.78,-509.97 130.01,-501.81 130.22,-512.41 136.78,-509.97"/>
</g>
<!-- siibra_core -->
<g id="node4" class="node">
<title>siibra_core</title><style>.edge>path:hover{stroke-width:8}</style>
<ellipse fill="#bd0404" stroke="black" cx="147.66" cy="-403.71" rx="36.49" ry="18"/>
<text text-anchor="middle" x="147.66" y="-401.21" font-family="Helvetica,sans-Serif" font-size="10.00" fill="#ffffff">siibra.core</text>
</g>
<!-- siibra_commons&#45;&gt;siibra_core -->
<g id="edge3" class="edge">
<title>siibra_commons&#45;&gt;siibra_core</title><style>.edge>path:hover{stroke-width:8}</style>
<path fill="none" stroke="black" d="M45.66,-477.92C34.32,-447.03 71.81,-427.12 104.5,-415.97"/>
<polygon fill="#f91010" stroke="black" points="105.41,-419.35 113.88,-412.98 103.29,-412.68 105.41,-419.35"/>
</g>
<!-- siibra_features -->
<g id="node5" class="node">
<title>siibra_features</title><style>.edge>path:hover{stroke-width:8}</style>
<ellipse fill="#931a1a" stroke="black" cx="333.66" cy="-171.64" rx="36.12" ry="21.43"/>
<text text-anchor="middle" x="333.66" y="-174.64" font-family="Helvetica,sans-Serif" font-size="10.00" fill="#ffffff">siibra.</text>
<text text-anchor="middle" x="333.66" y="-163.64" font-family="Helvetica,sans-Serif" font-size="10.00" fill="#ffffff">features</text>
</g>
<!-- siibra_commons&#45;&gt;siibra_features -->
<g id="edge4" class="edge">
<title>siibra_commons&#45;&gt;siibra_features</title><style>.edge>path:hover{stroke-width:8}</style>
<path fill="none" stroke="black" d="M511.66,-477.92C462.29,-414.92 410.23,-409.53 409.66,-329.49"/>
<path fill="none" stroke="black" d="M421.29,-628.47C468.05,-622.61 535.71,-605.87 568.66,-558.35"/>
<path fill="none" stroke="black" d="M568.66,-556.35C592.81,-521.52 535.69,-514.82 511.66,-479.92"/>
</g>
<!-- siibra_livequeries -->
<g id="node6" class="node">
<title>siibra_livequeries</title><style>.edge>path:hover{stroke-width:8}</style>
<ellipse fill="#8a2e2e" stroke="black" cx="383.66" cy="-93.21" rx="43.68" ry="21.43"/>
<text text-anchor="middle" x="383.66" y="-96.21" font-family="Helvetica,sans-Serif" font-size="10.00" fill="#ffffff">siibra.</text>
<text text-anchor="middle" x="383.66" y="-85.21" font-family="Helvetica,sans-Serif" font-size="10.00" fill="#ffffff">livequeries</text>
</g>
<!-- siibra_commons&#45;&gt;siibra_livequeries -->
<g id="edge5" class="edge">
<title>siibra_commons&#45;&gt;siibra_livequeries</title><style>.edge>path:hover{stroke-width:8}</style>
<path fill="none" stroke="black" d="M568.66,-556.35C609.78,-497.05 626.66,-476.86 626.66,-404.71 626.66,-404.71 626.66,-404.71 626.66,-249.07 626.66,-159.32 507.33,-119.31 435.91,-103.4"/>
<polygon fill="#f91010" stroke="black" points="436.88,-100.03 426.37,-101.37 435.42,-106.88 436.88,-100.03"/>
</g>
<!-- siibra_locations -->
<g id="node7" class="node">
<title>siibra_locations</title><style>.edge>path:hover{stroke-width:8}</style>
<ellipse fill="#d10505" stroke="black" cx="303.66" cy="-328.49" rx="39.7" ry="21.43"/>
<text text-anchor="middle" x="303.66" y="-331.49" font-family="Helvetica,sans-Serif" font-size="10.00" fill="#ffffff">siibra.</text>
<text text-anchor="middle" x="303.66" y="-320.49" font-family="Helvetica,sans-Serif" font-size="10.00" fill="#ffffff">locations</text>
</g>
<!-- siibra_commons&#45;&gt;siibra_locations -->
<g id="edge6" class="edge">
<title>siibra_commons&#45;&gt;siibra_locations</title><style>.edge>path:hover{stroke-width:8}</style>
<path fill="none" stroke="black" d="M162.66,-556.35C154.09,-548.71 243.11,-417.21 283.9,-357.99"/>
<polygon fill="#f91010" stroke="black" points="286.58,-360.27 289.38,-350.06 280.82,-356.3 286.58,-360.27"/>
</g>
<!-- siibra_retrieval -->
<g id="node8" class="node">
<title>siibra_retrieval</title><style>.edge>path:hover{stroke-width:8}</style>
<ellipse fill="#e50505" stroke="black" cx="371.66" cy="-557.35" rx="35.21" ry="21.43"/>
<text text-anchor="middle" x="371.66" y="-560.35" font-family="Helvetica,sans-Serif" font-size="10.00" fill="#ffffff">siibra.</text>
<text text-anchor="middle" x="371.66" y="-549.35" font-family="Helvetica,sans-Serif" font-size="10.00" fill="#ffffff">retrieval</text>
</g>
<!-- siibra_commons&#45;&gt;siibra_retrieval -->
<g id="edge7" class="edge">
<title>siibra_commons&#45;&gt;siibra_retrieval</title><style>.edge>path:hover{stroke-width:8}</style>
<path fill="none" stroke="black" d="M371.66,-614.21C371.66,-607.16 371.66,-598.79 371.66,-590.69"/>
<polygon fill="#f91010" stroke="black" points="375.17,-590.73 371.66,-580.73 368.17,-590.73 375.17,-590.73"/>
</g>
<!-- siibra_vocabularies -->
<g id="node9" class="node">
<title>siibra_vocabularies</title><style>.edge>path:hover{stroke-width:8}</style>
<ellipse fill="#c04040" stroke="black" cx="511.66" cy="-250.07" rx="49.49" ry="21.43"/>
<text text-anchor="middle" x="511.66" y="-253.07" font-family="Helvetica,sans-Serif" font-size="10.00" fill="#ffffff">siibra.</text>
<text text-anchor="middle" x="511.66" y="-242.07" font-family="Helvetica,sans-Serif" font-size="10.00" fill="#ffffff">vocabularies</text>
</g>
<!-- siibra_commons&#45;&gt;siibra_vocabularies -->
<g id="edge8" class="edge">
<title>siibra_commons&#45;&gt;siibra_vocabularies</title><style>.edge>path:hover{stroke-width:8}</style>
<path fill="none" stroke="black" d="M511.66,-477.92C470.48,-419.26 487.85,-329.35 501.34,-282.27"/>
<polygon fill="#f91010" stroke="black" points="504.6,-283.58 504.13,-272.99 497.9,-281.56 504.6,-283.58"/>
</g>
<!-- siibra_volumes -->
<g id="node10" class="node">
<title>siibra_volumes</title><style>.edge>path:hover{stroke-width:8}</style>
<ellipse fill="#b81414" stroke="black" cx="195.66" cy="-250.07" rx="45.83" ry="18"/>
<text text-anchor="middle" x="195.66" y="-247.57" font-family="Helvetica,sans-Serif" font-size="10.00" fill="#ffffff">siibra.volumes</text>
</g>
<!-- siibra_commons&#45;&gt;siibra_volumes -->
<g id="edge9" class="edge">
<title>siibra_commons&#45;&gt;siibra_volumes</title><style>.edge>path:hover{stroke-width:8}</style>
<path fill="none" stroke="black" d="M45.66,-477.92C17.41,-400.97 64.52,-371.34 115.66,-307.28 127.39,-292.59 143.95,-280.09 158.95,-270.63"/>
<polygon fill="#f91010" stroke="black" points="160.47,-273.81 167.23,-265.65 156.86,-267.81 160.47,-273.81"/>
</g>
<!-- siibra_configuration&#45;&gt;siibra -->
<g id="edge10" class="edge">
<title>siibra_configuration&#45;&gt;siibra</title><style>.edge>path:hover{stroke-width:8}</style>
<path fill="none" stroke="black" d="M82.95,-465.84C55.04,-454.99 20.79,-435.87 7.66,-404.71"/>
</g>
<!-- siibra_configuration&#45;&gt;siibra_core -->
<g id="edge11" class="edge">
<title>siibra_configuration&#45;&gt;siibra_core</title><style>.edge>path:hover{stroke-width:8}</style>
<path fill="none" stroke="black" d="M133.93,-446.6C135.47,-441.89 137.06,-437.06 138.57,-432.44"/>
<polygon fill="#a51d1d" stroke="black" points="130.61,-445.49 130.82,-456.09 137.26,-447.67 130.61,-445.49"/>
<polygon fill="#a51d1d" stroke="black" points="141.89,-433.56 141.68,-422.97 135.24,-431.38 141.89,-433.56"/>
</g>
<!-- siibra_configuration&#45;&gt;siibra_features -->
<g id="edge12" class="edge">
<title>siibra_configuration&#45;&gt;siibra_features</title><style>.edge>path:hover{stroke-width:8}</style>
<path fill="none" stroke="black" d="M178.4,-464.73C233.59,-448.16 315.76,-413.8 352.66,-349.71 379.06,-303.86 361.68,-240.19 347.25,-203.01"/>
<polygon fill="#a51d1d" stroke="black" points="177.49,-461.35 168.85,-467.48 179.43,-468.07 177.49,-461.35"/>
<polygon fill="#a51d1d" stroke="black" points="350.69,-202.17 343.68,-194.22 344.2,-204.8 350.69,-202.17"/>
</g>
<!-- siibra_core&#45;&gt;siibra -->
<g id="edge13" class="edge">
<title>siibra_core&#45;&gt;siibra</title><style>.edge>path:hover{stroke-width:8}</style>
<path fill="none" stroke="black" d="M137.06,-386.27C118.42,-355.11 85.05,-287.35 121.66,-251.07"/>
</g>
<!-- siibra_core&#45;&gt;siibra_features -->
<g id="edge15" class="edge">
<title>siibra_core&#45;&gt;siibra_features</title><style>.edge>path:hover{stroke-width:8}</style>
<path fill="none" stroke="black" d="M269.66,-249.07C277.78,-229.78 292.5,-211.66 305.79,-197.91"/>
<polygon fill="#bd0404" stroke="black" points="308.1,-200.55 312.72,-191.01 303.17,-195.58 308.1,-200.55"/>
</g>
<!-- siibra_core&#45;&gt;siibra_livequeries -->
<g id="edge16" class="edge">
<title>siibra_core&#45;&gt;siibra_livequeries</title><style>.edge>path:hover{stroke-width:8}</style>
<path fill="none" stroke="black" d="M269.66,-249.07C282.84,-217.76 257.53,-204.37 269.66,-172.64"/>
<path fill="none" stroke="black" d="M269.66,-170.64C280.9,-141.27 310.85,-121.87 337.23,-109.96"/>
<polygon fill="#bd0404" stroke="black" points="338.26,-113.33 346.1,-106.2 335.53,-106.88 338.26,-113.33"/>
<path fill="none" stroke="black" d="M165.02,-387.48C192.51,-362.22 245.42,-308.68 269.66,-251.07"/>
</g>
<!-- siibra_core&#45;&gt;siibra_locations -->
<g id="edge17" class="edge">
<title>siibra_core&#45;&gt;siibra_locations</title><style>.edge>path:hover{stroke-width:8}</style>
<path fill="none" stroke="black" d="M183.78,-385.76C207.79,-374.49 239.31,-359.69 264.01,-348.1"/>
<polygon fill="#bd0404" stroke="black" points="182.36,-382.56 174.8,-389.97 185.33,-388.89 182.36,-382.56"/>
<polygon fill="#bd0404" stroke="black" points="265.2,-351.41 272.77,-343.99 262.23,-345.07 265.2,-351.41"/>
</g>
<!-- siibra_core&#45;&gt;siibra_volumes -->
<g id="edge18" class="edge">
<title>siibra_core&#45;&gt;siibra_volumes</title><style>.edge>path:hover{stroke-width:8}</style>
<path fill="none" stroke="black" d="M156.55,-374.65C165.17,-347.41 178.18,-306.29 186.8,-279.07"/>
<polygon fill="#bd0404" stroke="black" points="153.22,-373.57 153.53,-384.16 159.89,-375.68 153.22,-373.57"/>
<polygon fill="#bd0404" stroke="black" points="190.06,-280.37 189.74,-269.78 183.39,-278.26 190.06,-280.37"/>
</g>
<!-- siibra_features&#45;&gt;siibra -->
<g id="edge19" class="edge">
<title>siibra_features&#45;&gt;siibra</title><style>.edge>path:hover{stroke-width:8}</style>
<path fill="none" stroke="black" d="M300.81,-161.98C267.45,-151.13 221.99,-129.53 231.66,-94.21"/>
</g>
<!-- siibra_features&#45;&gt;siibra_livequeries -->
<g id="edge21" class="edge">
<title>siibra_features&#45;&gt;siibra_livequeries</title><style>.edge>path:hover{stroke-width:8}</style>
<path fill="none" stroke="black" d="M346.28,-151.35C351.82,-142.89 358.45,-132.76 364.57,-123.4"/>
<polygon fill="#931a1a" stroke="black" points="367.33,-125.58 369.87,-115.29 361.47,-121.74 367.33,-125.58"/>
</g>
<!-- siibra_livequeries&#45;&gt;siibra -->
<g id="edge22" class="edge">
<title>siibra_livequeries&#45;&gt;siibra</title><style>.edge>path:hover{stroke-width:8}</style>
<path fill="none" stroke="black" d="M383.66,-71.43C383.66,-64.02 383.66,-55.53 383.66,-47.58"/>
<polygon fill="#8a2e2e" stroke="black" points="387.17,-47.64 383.66,-37.64 380.17,-47.64 387.17,-47.64"/>
</g>
<!-- siibra_locations&#45;&gt;siibra -->
<g id="edge23" class="edge">
<title>siibra_locations&#45;&gt;siibra</title><style>.edge>path:hover{stroke-width:8}</style>
<path fill="none" stroke="black" d="M307.01,-306.94C308.98,-291.49 310.57,-269.84 307.66,-251.07"/>
<path fill="none" stroke="black" d="M307.66,-249.07C300.34,-201.73 224.76,-220.04 231.66,-172.64"/>
</g>
<!-- siibra_locations&#45;&gt;siibra_configuration -->
<g id="edge24" class="edge">
<title>siibra_locations&#45;&gt;siibra_configuration</title><style>.edge>path:hover{stroke-width:8}</style>
<path fill="none" stroke="black" d="M282.5,-346.93C269.07,-358.01 251.33,-372.68 235.66,-385.71 216.5,-401.65 211.88,-405.83 192.66,-421.71 180.42,-431.82 166.88,-442.88 155.06,-452.49"/>
<polygon fill="#d10505" stroke="black" points="153.14,-449.54 147.59,-458.56 157.56,-454.97 153.14,-449.54"/>
</g>
<!-- siibra_locations&#45;&gt;siibra_features -->
<g id="edge26" class="edge">
<title>siibra_locations&#45;&gt;siibra_features</title><style>.edge>path:hover{stroke-width:8}</style>
<path fill="none" stroke="black" d="M307.66,-249.07C305.21,-233.17 310.18,-216.17 316.41,-202.25"/>
<polygon fill="#d10505" stroke="black" points="319.37,-204.15 320.65,-193.63 313.09,-201.06 319.37,-204.15"/>
</g>
<!-- siibra_locations&#45;&gt;siibra_livequeries -->
<g id="edge27" class="edge">
<title>siibra_locations&#45;&gt;siibra_livequeries</title><style>.edge>path:hover{stroke-width:8}</style>
<path fill="none" stroke="black" d="M307.66,-249.07C301.87,-211.58 256.12,-208.07 269.66,-172.64"/>
</g>
<!-- siibra_locations&#45;&gt;siibra_volumes -->
<g id="edge28" class="edge">
<title>siibra_locations&#45;&gt;siibra_volumes</title><style>.edge>path:hover{stroke-width:8}</style>
<path fill="none" stroke="black" d="M280.23,-310.91C264.42,-299.72 243.4,-284.85 226.28,-272.73"/>
<polygon fill="#d10505" stroke="black" points="228.64,-270.11 218.45,-267.19 224.59,-275.83 228.64,-270.11"/>
</g>
<!-- siibra_retrieval&#45;&gt;siibra -->
<g id="edge29" class="edge">
<title>siibra_retrieval&#45;&gt;siibra</title><style>.edge>path:hover{stroke-width:8}</style>
<path fill="none" stroke="black" d="M404.62,-549.43C465.33,-534.55 588.66,-493.41 588.66,-404.71 588.66,-404.71 588.66,-404.71 588.66,-170.64 588.66,-87.64 478.69,-44.87 419.84,-27.93"/>
<polygon fill="#e50505" stroke="black" points="420.83,-24.57 410.26,-25.29 418.97,-31.32 420.83,-24.57"/>
</g>
<!-- siibra_retrieval&#45;&gt;siibra_configuration -->
<g id="edge30" class="edge">
<title>siibra_retrieval&#45;&gt;siibra_configuration</title><style>.edge>path:hover{stroke-width:8}</style>
<path fill="none" stroke="black" d="M340.51,-546.74C298.9,-533.92 224.67,-511.04 174.8,-495.68"/>
<polygon fill="#e50505" stroke="black" points="175.96,-492.37 165.37,-492.77 173.9,-499.06 175.96,-492.37"/>
</g>
<!-- siibra_retrieval&#45;&gt;siibra_core -->
<g id="edge31" class="edge">
<title>siibra_retrieval&#45;&gt;siibra_core</title><style>.edge>path:hover{stroke-width:8}</style>
<path fill="none" stroke="black" d="M375.2,-535.64C377.06,-519.93 377.83,-498 371.66,-479.92"/>
<path fill="none" stroke="black" d="M371.66,-477.92C359.89,-443.38 255.75,-421.42 193.69,-411.29"/>
<polygon fill="#e50505" stroke="black" points="194.55,-407.88 184.12,-409.77 193.45,-414.79 194.55,-407.88"/>
</g>
<!-- siibra_retrieval&#45;&gt;siibra_features -->
<g id="edge32" class="edge">
<title>siibra_retrieval&#45;&gt;siibra_features</title><style>.edge>path:hover{stroke-width:8}</style>
<path fill="none" stroke="black" d="M409.66,-327.49C411.7,-278.62 380.2,-229.08 357.13,-199.61"/>
<polygon fill="#e50505" stroke="black" points="359.95,-197.53 350.94,-191.96 354.51,-201.93 359.95,-197.53"/>
<path fill="none" stroke="black" d="M371.66,-402.71C368.06,-366.22 409.93,-366.15 409.66,-329.49"/>
</g>
<!-- siibra_retrieval&#45;&gt;siibra_livequeries -->
<g id="edge33" class="edge">
<title>siibra_retrieval&#45;&gt;siibra_livequeries</title><style>.edge>path:hover{stroke-width:8}</style>
<path fill="none" stroke="black" d="M371.66,-477.92C362.51,-448.57 416.85,-379.69 423.66,-349.71 441.15,-272.82 473.6,-241.2 434.66,-172.64"/>
<path fill="none" stroke="black" d="M434.66,-170.64C424.79,-154.65 413.2,-137.19 403.57,-123"/>
<polygon fill="#e50505" stroke="black" points="406.64,-121.3 398.11,-115.01 400.86,-125.24 406.64,-121.3"/>
</g>
<!-- siibra_retrieval&#45;&gt;siibra_locations -->
<g id="edge34" class="edge">
<title>siibra_retrieval&#45;&gt;siibra_locations</title><style>.edge>path:hover{stroke-width:8}</style>
<path fill="none" stroke="black" d="M371.66,-402.71C369.61,-381.92 354.46,-364.5 338.97,-351.87"/>
<polygon fill="#e50505" stroke="black" points="341.2,-349.17 331.12,-345.91 336.97,-354.74 341.2,-349.17"/>
<path fill="none" stroke="black" d="M371.66,-477.92C361.17,-447.12 374.86,-437.09 371.66,-404.71"/>
</g>
<!-- siibra_retrieval&#45;&gt;siibra_volumes -->
<g id="edge35" class="edge">
<title>siibra_retrieval&#45;&gt;siibra_volumes</title><style>.edge>path:hover{stroke-width:8}</style>
<path fill="none" stroke="black" d="M371.66,-477.92C346.78,-404.9 300.7,-411.61 254.66,-349.71 237.53,-326.66 221.01,-298.35 209.84,-277.98"/>
<polygon fill="#e50505" stroke="black" points="213.06,-276.58 205.22,-269.45 206.9,-279.92 213.06,-276.58"/>
</g>
<!-- siibra_vocabularies&#45;&gt;siibra_features -->
<g id="edge36" class="edge">
<title>siibra_vocabularies&#45;&gt;siibra_features</title><style>.edge>path:hover{stroke-width:8}</style>
<path fill="none" stroke="black" d="M477.34,-234.33C447.52,-221.53 404.33,-202.98 373.09,-189.57"/>
<polygon fill="#c04040" stroke="black" points="374.55,-186.38 363.98,-185.65 371.78,-192.82 374.55,-186.38"/>
</g>
<!-- siibra_vocabularies&#45;&gt;siibra_livequeries -->
<g id="edge37" class="edge">
<title>siibra_vocabularies&#45;&gt;siibra_livequeries</title><style>.edge>path:hover{stroke-width:8}</style>
<path fill="none" stroke="black" d="M487.31,-230.93C470.12,-216.87 447.87,-195.9 434.66,-172.64"/>
</g>
<!-- siibra_volumes&#45;&gt;siibra -->
<g id="edge38" class="edge">
<title>siibra_volumes&#45;&gt;siibra</title><style>.edge>path:hover{stroke-width:8}</style>
<path fill="none" stroke="black" d="M207.07,-232.4C216.36,-217.51 228.45,-194.7 231.66,-172.64"/>
</g>
<!-- siibra_volumes&#45;&gt;siibra_configuration -->
<g id="edge39" class="edge">
<title>siibra_volumes&#45;&gt;siibra_configuration</title><style>.edge>path:hover{stroke-width:8}</style>
<path fill="none" stroke="black" d="M179.59,-267.1C157.24,-290.68 117.8,-337.16 102.66,-385.71 96.39,-405.83 101.69,-428.95 108.53,-447.01"/>
<polygon fill="#b81414" stroke="black" points="105.25,-448.24 112.32,-456.13 111.71,-445.55 105.25,-448.24"/>
</g>
<!-- siibra_volumes&#45;&gt;siibra_features -->
<g id="edge41" class="edge">
<title>siibra_volumes&#45;&gt;siibra_features</title><style>.edge>path:hover{stroke-width:8}</style>
<path fill="none" stroke="black" d="M221.3,-234.87C242.85,-222.93 273.9,-205.74 297.89,-192.45"/>
<polygon fill="#b81414" stroke="black" points="299.32,-195.66 306.38,-187.75 295.93,-189.54 299.32,-195.66"/>
</g>
</g>
</svg>
